HIERARCHY
ROOT hip
{
  OFFSET 0 0 0
  CHANNELS 6 Xposition Yposition Zposition Zrotation Yrotation Xrotation
  JOINT abdomen
  {
    OFFSET 0 20.6881 -0.73152
    CHANNELS 3 Zrotation Xrotation Yrotation
    JOINT chest
    {
      OFFSET 0 11.7043 -0.48768
      CHANNELS 3 Zrotation Xrotation Yrotation
      JOINT neck
      {
        OFFSET 0 22.1894 -2.19456
        CHANNELS 3 Zrotation Xrotation Yrotation
        JOINT head
        {
          OFFSET -0.24384 7.07133 1.2192
          CHANNELS 3 Zrotation Xrotation Yrotation
          JOINT leftEye
          {
            OFFSET 4.14528 8.04674 8.04672
            CHANNELS 3 Zrotation Xrotation Yrotation
            End Site
            {
              OFFSET 1 0 0
            }
          }
          JOINT rightEye
          {
            OFFSET -3.6576 8.04674 8.04672
            CHANNELS 3 Zrotation Xrotation Yrotation
            End Site
            {
              OFFSET 1 0 0
            }
          }
        }
      }
      JOINT rCollar
      {
        OFFSET -2.68224 19.2634 -4.8768
        CHANNELS 3 Zrotation Xrotation Yrotation
        JOINT rShldr
        {
          OFFSET -8.77824 -1.95073 1.46304
          CHANNELS 3 Zrotation Xrotation Yrotation
          JOINT rForeArm
          {
            OFFSET -28.1742 -1.7115 0.48768
            CHANNELS 3 Zrotation Xrotation Yrotation
            JOINT rHand
            {
              OFFSET -22.5879 0.773209 7.07136
              CHANNELS 3 Zrotation Xrotation Yrotation
              JOINT rThumb1
              {
                OFFSET -1.2192 -0.487915 3.41376
                CHANNELS 3 Zrotation Xrotation Yrotation
                JOINT rThumb2
                {
                  OFFSET -3.37035 -0.52449 3.41376
                  CHANNELS 3 Zrotation Xrotation Yrotation
                  End Site
                  {
                    OFFSET -1.78271 -1.18214 1.43049
                  }
                }
              }
              JOINT rIndex1
              {
                OFFSET -7.75947 0.938293 5.60832
                CHANNELS 3 Zrotation Xrotation Yrotation
                JOINT rIndex2
                {
                  OFFSET -2.54057 -0.884171 1.56538
                  CHANNELS 3 Zrotation Xrotation Yrotation
                  End Site
                  {
                    OFFSET -1.62519 -0.234802 1.16502
                  }
                }
              }
              JOINT rMid1
              {
                OFFSET -8.24714 1.18213 3.41376
                CHANNELS 3 Zrotation Xrotation Yrotation
                JOINT rMid2
                {
                  OFFSET -3.10165 -0.590103 1.0647
                  CHANNELS 3 Zrotation Xrotation Yrotation
                  End Site
                  {
                    OFFSET -2.48547 -0.328903 0.83742
                  }
                }
              }
              JOINT rRing1
              {
                OFFSET -8.82822 0.546677 1.51678
                CHANNELS 3 Zrotation Xrotation Yrotation
                JOINT rRing2
                {
                  OFFSET -2.60934 -0.819778 -0.0198488
                  CHANNELS 3 Zrotation Xrotation Yrotation
                  End Site
                  {
                    OFFSET -2.33842 -0.294052 0.168128
                  }
                }
              }
              JOINT rPinky1
              {
                OFFSET -8.27202 -0.0477905 -0.4584
                CHANNELS 3 Zrotation Xrotation Yrotation
                JOINT rPinky2
                {
                  OFFSET -1.82734 -0.647385 -0.700984
                  CHANNELS 3 Zrotation Xrotation Yrotation
                  End Site
                  {
                    OFFSET -1.69225 -0.51767 -0.607171
                  }
                }
              }
            }
          }
        }
      }
      JOINT lCollar
      {
        OFFSET 2.68224 19.2634 -4.8768
        CHANNELS 3 Zrotation Xrotation Yrotation
        JOINT lShldr
        {
          OFFSET 8.77824 -1.95073 1.46304
          CHANNELS 3 Zrotation Xrotation Yrotation
          JOINT lForeArm
          {
            OFFSET 28.1742 -1.7115 0.48768
            CHANNELS 3 Zrotation Xrotation Yrotation
            JOINT lHand
            {
              OFFSET 22.5879 0.773209 7.07136
              CHANNELS 3 Zrotation Xrotation Yrotation
              JOINT lThumb1
              {
                OFFSET 1.2192 -0.487915 3.41376
                CHANNELS 3 Zrotation Xrotation Yrotation
                JOINT lThumb2
                {
                  OFFSET 3.37035 -0.52449 3.41376
                  CHANNELS 3 Zrotation Xrotation Yrotation
                  End Site
                  {
                    OFFSET 1.78271 -1.18214 1.43049
                  }
                }
              }
              JOINT lIndex1
              {
                OFFSET 7.75947 0.938293 5.60832
                CHANNELS 3 Zrotation Xrotation Yrotation
                JOINT lIndex2
                {
                  OFFSET 2.54057 -0.884171 1.56538
                  CHANNELS 3 Zrotation Xrotation Yrotation
                  End Site
                  {
                    OFFSET 1.62519 -0.234802 1.16502
                  }
                }
              }
              JOINT lMid1
              {
                OFFSET 8.24714 1.18213 3.41376
                CHANNELS 3 Zrotation Xrotation Yrotation
                JOINT lMid2
                {
                  OFFSET 3.10165 -0.590103 1.0647
                  CHANNELS 3 Zrotation Xrotation Yrotation
                  End Site
                  {
                    OFFSET 2.48547 -0.328903 0.83742
                  }
                }
              }
              JOINT lRing1
              {
                OFFSET 8.82822 0.546677 1.51678
                CHANNELS 3 Zrotation Xrotation Yrotation
                JOINT lRing2
                {
                  OFFSET 2.60934 -0.819778 -0.0198488
                  CHANNELS 3 Zrotation Xrotation Yrotation
                  End Site
                  {
                    OFFSET 2.33842 -0.294052 0.168128
                  }
                }
              }
              JOINT lPinky1
              {
                OFFSET 8.27202 -0.0477905 -0.4584
                CHANNELS 3 Zrotation Xrotation Yrotation
                JOINT lPinky2
                {
                  OFFSET 1.82734 -0.647385 -0.700984
                  CHANNELS 3 Zrotation Xrotation Yrotation
                  End Site
                  {
                    OFFSET 1.69225 -0.51767 -0.607171
                  }
                }
              }
            }
          }
        }
      }
    }
  }
  JOINT rButtock
  {
    OFFSET -8.77824 4.35084 1.2192
    CHANNELS 3 Zrotation Xrotation Yrotation
    JOINT rThigh
    {
      OFFSET 0 -1.70687 -2.19456
      CHANNELS 3 Zrotation Xrotation Yrotation
      JOINT rShin
      {
        OFFSET 0 -36.8199 0.73152
        CHANNELS 3 Zrotation Xrotation Yrotation
        JOINT rFoot
        {
          OFFSET 0.73152 -45.1104 -5.12064
          CHANNELS 3 Zrotation Xrotation Yrotation
          End Site
          {
            OFFSET -1.1221 -3.69964 12.103
          }
        }
      }
    }
  }
  JOINT lButtock
  {
    OFFSET 8.77824 4.35084 1.2192
    CHANNELS 3 Zrotation Xrotation Yrotation
    JOINT lThigh
    {
      OFFSET 0 -1.70687 -2.19456
      CHANNELS 3 Zrotation Xrotation Yrotation
      JOINT lShin
      {
        OFFSET 0 -36.8199 0.73152
        CHANNELS 3 Zrotation Xrotation Yrotation
        JOINT lFoot
        {
          OFFSET -0.73152 -45.1104 -5.12064
          CHANNELS 3 Zrotation Xrotation Yrotation
          End Site
          {
            OFFSET 1.1221 -3.69964 12.103
          }
        }
      }
    }
  }
}
MOTION
Frames:	8
Frame Time:	0.00833333
63.6708 85.479 -212.535 -359.221 -19.0936 362.458 3.97082 0.195065 4.33353 3.22842 -7.56815 1.56969 2.97343 14.6457 4.02323 -3.56233 -30.1951 7.00733 -0.0 0.0 0.0 -0.0 0.0 0.0 4.52041e-14 2.81958e-15 4.06174e-13 76.8873 36.7632 1.01166 -13.7937 -6.78908 25.1401 -0.777658 24.2228 3.62495 -1.31201e-09 2.28555e-09 -9.31814e-10 -2.28255e-09 3.93751e-09 -1.5829e-09 -1.312e-09 2.28555e-09 -9.31825e-10 7.73091 5.47488 0.417314 -1.31201e-09 2.28555e-09 -9.31821e-10 2.90554 0.965183 0.102902 -1.31201e-09 2.28555e-09 -9.31816e-10 10.2786 0.731801 0.0259123 -1.31202e-09 2.28555e-09 -9.31814e-10 2.22167 -0.733487 -0.20892 4.52738e-14 2.82128e-15 4.06076e-13 -81.3813 42.8064 1.60897 16.303 -8.97192 -30.3145 0.264866 14.4963 -2.08239 -1.06337e-09 -1.00938e-09 -3.56752e-10 -1.84168e-09 -1.72081e-09 -6.03528e-10 -1.06337e-09 -1.00939e-09 -3.56742e-10 -7.73091 5.47488 -0.417314 -1.06337e-09 -1.00938e-09 -3.56746e-10 -2.90554 0.965183 -0.102902 -1.06337e-09 -1.00938e-09 -3.5675e-10 -10.2786 0.731801 -0.0259123 -1.06336e-09 -1.00938e-09 -3.56762e-10 -2.22167 -0.733487 0.20892 -2.03217e-16 0.0 -3.88251e-19 2.48585 -12.797 5.43427 -0.10319 33.8115 0.904016 -12.7767 -19.8103 -27.6983 2.03217e-16 0.0 3.88251e-19 -5.55911 -14.272 -12.2609 0.161524 27.2686 -0.595216 3.48735 -16.7491 7.91638
63.5993 85.4094 -212.504 -359.22 -18.7405 362.052 3.85097 0.218758 4.33414 3.25645 -7.58146 1.57405 2.81108 14.5467 3.87717 -3.14103 -29.9274 6.83153 -0.0 0.0 0.0 -0.0 0.0 0.0 6.26042e-14 -2.38367e-15 5.88552e-13 77.0755 36.5505 0.631522 -13.7431 -6.74901 25.0386 -0.802387 24.5681 3.68379 -1.81735e-09 3.154e-09 -1.15831e-09 -3.15871e-09 5.43303e-09 -1.96479e-09 -1.81734e-09 3.154e-09 -1.15832e-09 7.73091 5.47488 0.417314 -1.81735e-09 3.15399e-09 -1.15832e-09 2.90554 0.965183 0.102902 -1.81734e-09 3.15399e-09 -1.15831e-09 10.2786 0.731801 0.0259123 -1.81735e-09 3.15399e-09 -1.15831e-09 2.22167 -0.733487 -0.20892 6.26839e-14 -2.38677e-15 5.88452e-13 -81.4507 42.8267 1.8764 16.3599 -9.026 -30.4361 0.259569 14.3543 -2.0611 -1.33465e-09 -1.29029e-09 -4.96176e-10 -2.31188e-09 -2.20064e-09 -8.41348e-10 -1.33465e-09 -1.2903e-09 -4.96163e-10 -7.73091 5.47488 -0.417314 -1.33465e-09 -1.29029e-09 -4.96163e-10 -2.90554 0.965183 -0.102902 -1.33465e-09 -1.29029e-09 -4.9617e-10 -10.2786 0.731801 -0.0259123 -1.33464e-09 -1.29029e-09 -4.96182e-10 -2.22167 -0.733487 0.20892 -2.03217e-16 0.0 -3.88251e-19 2.98201 -12.5932 6.49408 -0.102888 33.7897 0.899078 -12.486 -19.9425 -27.0492 2.03217e-16 0.0 3.88251e-19 -5.47246 -14.4719 -12.3291 0.164235 27.5353 -0.597757 3.26339 -16.9159 7.28476
63.5906 85.3653 -212.659 -359.211 -18.1569 362.342 3.78192 0.0717221 4.23839 3.25162 -7.50974 1.54419 2.54145 14.4484 3.74275 -2.58774 -29.6153 6.7157 -0.0 0.0 0.0 -0.0 0.0 0.0 3.79529e-14 -3.52258e-14 3.14019e-13 77.2424 36.4169 0.248595 -13.7266 -6.73574 25.006 -0.813385 24.7179 3.70948 -1.09705e-09 1.9386e-09 -6.75396e-10 -1.90584e-09 3.33992e-09 -1.14533e-09 -1.09703e-09 1.9386e-09 -6.75407e-10 7.73091 5.47488 0.417314 -1.09704e-09 1.93859e-09 -6.75402e-10 2.90554 0.965183 0.102902 -1.09704e-09 1.93859e-09 -6.75399e-10 10.2786 0.731801 0.0259123 -1.09705e-09 1.93859e-09 -6.75397e-10 2.22167 -0.733487 -0.20892 3.80316e-14 -3.52304e-14 3.13891e-13 -81.4377 42.9172 2.03905 16.4108 -9.07464 -30.5448 0.253943 14.2029 -2.03843 -8.74627e-10 -6.80892e-10 -3.04974e-10 -1.51558e-09 -1.15659e-09 -5.15935e-10 -8.74629e-10 -6.80901e-10 -3.04958e-10 -7.73091 5.47488 -0.417314 -8.74627e-10 -6.80894e-10 -3.04959e-10 -2.90554 0.965183 -0.102902 -8.74628e-10 -6.80895e-10 -3.04966e-10 -10.2786 0.731801 -0.0259123 -8.74623e-10 -6.80892e-10 -3.04976e-10 -2.22167 -0.733487 0.20892 -2.03217e-16 0.0 -3.88251e-19 3.47848 -12.4573 7.48906 -0.101523 33.729 0.895492 -12.3339 -19.8805 -26.8433 2.03217e-16 0.0 3.88251e-19 -5.4236 -14.7335 -12.5303 0.166387 27.7405 -0.600166 3.08834 -16.9911 6.80948
63.5373 85.3358 -212.707 -359.233 -17.6865 362.388 3.73927 -0.176672 4.07543 3.22719 -7.39065 1.49103 2.20312 14.3483 3.6171 -1.95097 -29.2731 6.6399 -0.0 0.0 0.0 -0.0 0.0 0.0 -1.02653e-14 -8.47293e-14 -2.33336e-13 77.3932 36.3492 -0.132875 -13.7417 -6.74777 25.0363 -0.81455 24.7346 3.71232 3.53457e-10 -4.77069e-10 2.08951e-10 6.15171e-10 -8.19093e-10 3.53043e-10 3.5347e-10 -4.77073e-10 2.08938e-10 7.73091 5.47488 0.417314 3.53457e-10 -4.77072e-10 2.08945e-10 2.90554 0.965183 0.102902 3.53464e-10 -4.77073e-10 2.08947e-10 10.2786 0.731801 0.0259123 3.5345e-10 -4.77074e-10 2.08948e-10 2.22167 -0.733487 -0.20892 -1.01946e-14 -8.47338e-14 -2.33513e-13 -81.3716 43.0502 2.1465 16.4606 -9.12234 -30.6509 0.247618 14.0301 -2.01258 -3.74478e-13 4.07356e-10 5.57671e-11 -2.17226e-12 7.06566e-10 9.78745e-11 -3.75588e-13 4.07354e-10 5.57871e-11 -7.73091 5.47488 -0.417314 -3.73812e-13 4.07356e-10 5.57806e-11 -2.90554 0.965183 -0.102902 -3.75533e-13 4.07356e-10 5.57775e-11 -10.2786 0.731801 -0.0259123 -3.72535e-13 4.07358e-10 5.57708e-11 -2.22167 -0.733487 0.20892 -2.03217e-16 0.0 -3.88251e-19 3.99292 -12.378 8.44262 -0.0991519 33.6419 0.895151 -12.3444 -19.7214 -27.0345 2.03217e-16 0.0 3.88251e-19 -5.39763 -15.0438 -12.8122 0.168187 27.9088 -0.602307 2.94207 -17.0066 6.42626
63.5329 85.3131 -212.765 -359.292 -16.8386 362.419 3.69463 -0.446427 3.90659 3.18871 -7.27398 1.43506 1.88656 14.2638 3.48734 -1.36174 -28.9319 6.54217 -0.0 0.0 0.0 -0.0 0.0 0.0 -5.8435e-14 -1.26853e-13 -7.8522e-13 77.562 36.2779 -0.530164 -13.7719 -6.77182 25.0964 -0.812231 24.7049 3.70716 1.87118e-09 -2.95484e-09 1.07386e-09 3.25191e-09 -5.08377e-09 1.81651e-09 1.87119e-09 -2.95484e-09 1.07385e-09 7.73091 5.47488 0.417314 1.87118e-09 -2.95484e-09 1.07386e-09 2.90554 0.965183 0.102902 1.87119e-09 -2.95484e-09 1.07386e-09 10.2786 0.731801 0.0259123 1.87117e-09 -2.95484e-09 1.07386e-09 2.22167 -0.733487 -0.20892 -5.83777e-14 -1.26857e-13 -7.85444e-13 -81.2949 43.1756 2.25936 16.5031 -9.16324 -30.7419 0.242359 13.8834 -1.99068 8.3717e-10 1.41058e-09 4.06055e-10 1.44763e-09 2.42332e-09 6.94088e-10 8.3717e-10 1.41058e-09 4.06079e-10 -7.73091 5.47488 -0.417314 8.37172e-10 1.41058e-09 4.06067e-10 -2.90554 0.965183 -0.102902 8.37169e-10 1.41058e-09 4.06067e-10 -10.2786 0.731801 -0.0259123 8.37171e-10 1.41058e-09 4.06064e-10 -2.22167 -0.733487 0.20892 -2.03217e-16 0.0 -3.88251e-19 4.49307 -12.3048 9.33733 -0.0959524 33.523 0.895644 -12.4307 -19.5231 -27.4129 2.03217e-16 0.0 3.88251e-19 -5.38724 -15.3501 -13.1225 0.169726 28.0478 -0.604107 2.80856 -16.9925 6.08372
63.65 85.2957 -212.811 -359.29 -15.478 362.402 3.62145 -0.657413 3.7931 3.14139 -7.20952 1.39674 1.68236 14.2125 3.34056 -0.949684 -28.6221 6.36115 -0.0 0.0 0.0 -0.0 0.0 0.0 -8.29407e-14 -1.37557e-13 -1.07334e-12 77.7807 36.1336 -0.95907 -13.8005 -6.79462 25.1535 -0.812852 24.7154 3.70889 2.79314e-09 -4.35653e-09 1.49848e-09 4.85194e-09 -7.49386e-09 2.53126e-09 2.79315e-09 -4.35654e-09 1.49846e-09 7.73091 5.47488 0.417314 2.79314e-09 -4.35653e-09 1.49847e-09 2.90554 0.965183 0.102902 2.79315e-09 -4.35654e-09 1.49847e-09 10.2786 0.731801 0.0259123 2.79313e-09 -4.35654e-09 1.49847e-09 2.22167 -0.733487 -0.20892 -8.29008e-14 -1.3756e-13 -1.07359e-12 -81.2502 43.2425 2.43823 16.5325 -9.19151 -30.805 0.23979 13.8104 -1.97981 1.18707e-09 1.7649e-09 5.659e-10 2.05313e-09 3.02819e-09 9.66714e-10 1.18707e-09 1.76491e-09 5.65926e-10 -7.73091 5.47488 -0.417314 1.18707e-09 1.7649e-09 5.6591e-10 -2.90554 0.965183 -0.102902 1.18706e-09 1.7649e-09 5.65912e-10 -10.2786 0.731801 -0.0259123 1.18707e-09 1.7649e-09 5.6591e-10 -2.22167 -0.733487 0.20892 -2.03217e-16 0.0 -3.88251e-19 4.9434 -12.1882 10.1551 -0.0921209 33.3668 0.894573 -12.509 -19.3435 -27.7692 2.03217e-16 0.0 3.88251e-19 -5.38286 -15.6004 -13.4082 0.171096 28.1647 -0.605497 2.67082 -16.9786 5.73019
63.6136 85.2851 -212.889 -359.287 -14.9342 362.36 3.49718 -0.794684 3.78281 3.07565 -7.21809 1.39007 1.66941 14.1986 3.16388 -0.814673 -28.3466 6.04375 -0.0 0.0 0.0 -0.0 0.0 0.0 -7.06778e-14 -9.32103e-14 -9.56911e-13 78.0885 35.8573 -1.4394 -13.8217 -6.8115 25.1962 -0.821069 24.8296 3.72843 2.85841e-09 -4.14736e-09 1.22711e-09 4.96017e-09 -7.12626e-09 2.06073e-09 2.85842e-09 -4.14736e-09 1.2271e-09 7.73091 5.47488 0.417314 2.85841e-09 -4.14736e-09 1.22711e-09 2.90554 0.965183 0.102902 2.85842e-09 -4.14736e-09 1.2271e-09 10.2786 0.731801 0.0259123 2.8584e-09 -4.14736e-09 1.22711e-09 2.22167 -0.733487 -0.20892 -7.06628e-14 -9.32116e-14 -9.57145e-13 -81.2348 43.2592 2.71602 16.5433 -9.20185 -30.8282 0.241825 13.8677 -1.98834 7.30807e-10 1.01897e-09 4.18721e-10 1.26278e-09 1.7472e-09 7.18001e-10 7.30809e-10 1.01898e-09 4.18746e-10 -7.73091 5.47488 -0.417314 7.30809e-10 1.01897e-09 4.18728e-10 -2.90554 0.965183 -0.102902 7.30804e-10 1.01897e-09 4.1873e-10 -10.2786 0.731801 -0.0259123 7.30807e-10 1.01897e-09 4.18727e-10 -2.22167 -0.733487 0.20892 -2.03217e-16 0.0 -3.88251e-19 5.33495 -12.0161 10.9283 -0.0875159 33.1568 0.890438 -12.556 -19.1912 -28.0525 2.03217e-16 0.0 3.88251e-19 -5.3875 -15.7769 -13.6538 0.172282 28.2576 -0.606463 2.53536 -16.9632 5.38291
63.6139 85.2895 -212.964 -359.289 -14.0777 362.245 3.34207 -0.89877 3.83252 2.99226 -7.27062 1.40128 1.78155 14.2129 2.96722 -0.863687 -28.0897 5.63582 -0.0 0.0 0.0 -0.0 0.0 0.0 -3.65101e-14 -1.23743e-14 -6.02106e-13 78.4533 35.499 -1.95479 -13.8449 -6.82989 25.2429 -0.832605 24.988 3.75559 2.44862e-09 -3.01142e-09 5.32038e-10 4.2405e-09 -5.15988e-09 8.67684e-10 2.44863e-09 -3.01143e-09 5.32028e-10 7.73091 5.47488 0.417314 2.44863e-09 -3.01143e-09 5.3204e-10 2.90554 0.965183 0.102902 2.44863e-09 -3.01143e-09 5.32036e-10 10.2786 0.731801 0.0259123 2.44861e-09 -3.01143e-09 5.32041e-10 2.22167 -0.733487 -0.20892 -3.6527e-14 -1.23739e-14 -6.02302e-13 -81.2301 43.245 3.05437 16.54 -9.19869 -30.8212 0.247119 14.0151 -2.01035 -2.2502e-10 -4.26155e-10 8.3374e-11 -3.926e-10 -7.32548e-10 1.49862e-10 -2.25017e-10 -4.26146e-10 8.33962e-11 -7.73091 5.47488 -0.417314 -2.25017e-10 -4.26156e-10 8.33788e-11 -2.90554 0.965183 -0.102902 -2.25023e-10 -4.26154e-10 8.33775e-11 -10.2786 0.731801 -0.0259123 -2.25017e-10 -4.26151e-10 8.33721e-11 -2.22167 -0.733487 0.20892 -2.03217e-16 0.0 -3.88251e-19 5.68499 -11.8159 11.6539 -0.0821398 32.9009 0.884841 -12.6163 -19.0374 -28.3725 2.03217e-16 0.0 3.88251e-19 -5.40316 -15.909 -13.8876 0.173238 28.3239 -0.607034 2.40794 -16.9338 5.0592
